<svg width="85" height="86" viewBox="0 0 85 86" fill="none" xmlns="http://www.w3.org/2000/svg">
<mask id="mask0_2_33" style="mask-type:alpha" maskUnits="userSpaceOnUse" x="0" y="0" width="85" height="86">
<g clip-path="url(#clip0_2_33)">
<path d="M17.9037 52.8068C17.4881 53.408 17.64 54.2313 18.2429 54.6456C18.8459 55.0599 19.6716 54.9085 20.0871 54.3073C20.0959 54.2948 20.1044 54.2819 20.1126 54.269C24.7216 47.3132 32.5248 43.1292 40.886 43.1305C41.6182 43.1305 42.2119 42.5385 42.2119 41.8084C42.2119 41.0783 41.6182 40.4863 40.886 40.4863C31.6361 40.484 23.003 45.1121 17.9037 52.8068Z" fill="black"/>
<path d="M83.5915 69.5716H75.6359V67.9746C75.6667 59.4093 72.1636 51.2085 65.9487 45.2957C65.4337 44.7764 64.5942 44.7718 64.0735 45.2851C63.5527 45.7986 63.5481 46.6356 64.0629 47.1549C64.0784 47.1706 64.0944 47.1859 64.1108 47.2008C69.8031 52.6172 73.0117 60.129 72.9839 67.9746V69.5716H11.9913V67.9746C12.0089 52.0702 24.9352 39.1814 40.886 39.1639H44.0894C46.5525 39.1622 49.0056 39.4733 51.39 40.0893C52.0916 40.2987 52.8304 39.9015 53.0404 39.2019C53.2504 38.5024 52.852 37.7656 52.1504 37.5563C52.1182 37.5467 52.0856 37.5382 52.0528 37.5311C50.2215 37.0601 48.3514 36.7544 46.4653 36.6176V32.5535C46.4653 31.8234 45.8716 31.2314 45.1394 31.2314H39.8357C39.1034 31.2314 38.5097 31.8234 38.5097 32.5535V36.6176C22.0671 37.8732 9.36103 51.5316 9.33932 67.9746V69.5716H1.38391C0.651668 69.5716 0.0579834 70.1636 0.0579834 70.8937C0.0579834 71.6238 0.651668 72.2158 1.38391 72.2158H83.5915C84.3237 72.2158 84.9174 71.6238 84.9174 70.8937C84.9174 70.1636 84.3237 69.5716 83.5915 69.5716ZM41.1618 33.8756H43.8136V36.5197H41.1618V33.8756Z" fill="black"/>
<path d="M56.1898 30.2308C57.4243 31.3295 58.3988 32.1967 58.3988 33.967C58.3988 35.7373 57.4243 36.6045 56.1898 37.7098C54.3133 39.0173 53.166 41.1317 53.0951 43.4132C53.0951 44.1433 53.6888 44.7353 54.421 44.7353C55.1533 44.7353 55.747 44.1433 55.747 43.4132C55.747 41.643 56.7215 40.7757 57.956 39.677C59.8336 38.3675 60.9809 36.2507 61.0507 33.967C60.9809 31.6836 59.8336 29.5673 57.956 28.2583C56.7215 27.1596 55.747 26.2923 55.747 24.5234C55.747 22.7545 56.7215 21.8885 57.956 20.7899C59.8336 19.4822 60.9811 17.3665 61.0507 15.0838C61.0507 14.3537 60.457 13.7617 59.7247 13.7617C58.9925 13.7617 58.3988 14.3537 58.3988 15.0838C58.3988 16.8514 57.4243 17.7174 56.1898 18.816C54.3118 20.1242 53.1644 22.2404 53.0951 24.5234C53.1651 26.8063 54.3123 28.9223 56.1898 30.2308Z" fill="black"/>
<path d="M64.1454 30.2308C65.3798 31.3295 66.3544 32.1967 66.3544 33.967C66.3544 35.7373 65.3798 36.6111 64.1454 37.7045C62.2674 39.0132 61.12 41.1297 61.0507 43.4132C61.0507 44.1433 61.6444 44.7353 62.3766 44.7353C63.1089 44.7353 63.7025 44.1433 63.7025 43.4132C63.7025 41.643 64.6771 40.7757 65.9115 39.677C67.7892 38.3675 68.9365 36.2507 69.0063 33.967C68.9365 31.6836 67.7892 29.5673 65.9115 28.2583C64.6771 27.1596 63.7025 26.2923 63.7025 24.5234C63.7025 22.7545 64.6771 21.8885 65.9115 20.7899C67.7892 19.4822 68.9366 17.3665 69.0063 15.0838C69.0063 14.3537 68.4126 13.7617 67.6803 13.7617C66.9481 13.7617 66.3544 14.3537 66.3544 15.0838C66.3544 16.8514 65.3798 17.7174 64.1454 18.816C62.2674 20.1242 61.12 22.2404 61.0507 24.5234C61.1206 26.8063 62.2679 28.9223 64.1454 30.2308Z" fill="black"/>
<path d="M72.101 30.2308C73.3354 31.3295 74.31 32.1967 74.31 33.967C74.31 35.7373 73.3354 36.6111 72.101 37.7045C70.223 39.0132 69.0755 41.1297 69.0063 43.4132C69.0063 44.1433 69.5999 44.7353 70.3322 44.7353C71.0644 44.7353 71.6581 44.1433 71.6581 43.4132C71.6581 41.643 72.6327 40.7757 73.8671 39.677C75.7448 38.3675 76.892 36.2507 76.9618 33.967C76.892 31.6836 75.7448 29.5673 73.8671 28.2583C72.6327 27.1596 71.6581 26.2923 71.6581 24.5234C71.6581 22.7545 72.6327 21.8885 73.8671 20.7899C75.7448 19.4822 76.8922 17.3665 76.9618 15.0838C76.9618 14.3537 76.3681 13.7617 75.6359 13.7617C74.9037 13.7617 74.31 14.3537 74.31 15.0838C74.31 16.8514 73.3354 17.7174 72.101 18.816C70.223 20.1242 69.0755 22.2404 69.0063 24.5234C69.0762 26.8063 70.2235 28.9223 72.101 30.2308Z" fill="black"/>
</g>
</mask>
<g mask="url(#mask0_2_33)">
<rect x="-12.6221" y="-9.04248" width="108.269" height="98.2287" fill="#BC9060"/>
</g>
<defs>
<clipPath id="clip0_2_33">
<rect width="84.8594" height="84.6128" fill="white" transform="translate(0.0579834 0.682617)"/>
</clipPath>
</defs>
</svg>
