<svg width="31" height="31" viewBox="0 0 31 31" fill="none" xmlns="http://www.w3.org/2000/svg">
<mask id="mask0_2_65" style="mask-type:alpha" maskUnits="userSpaceOnUse" x="4" y="0" width="23" height="23">
<g clip-path="url(#clip0_2_65)">
<path d="M22.1773 14.2479C21.7064 13.7576 21.1384 13.4955 20.5365 13.4955C19.9394 13.4955 19.3666 13.7527 18.8763 14.243L17.3424 15.7721C17.2161 15.7042 17.0899 15.6411 16.9686 15.578C16.7938 15.4906 16.6288 15.4081 16.488 15.3207C15.0511 14.4081 13.7453 13.2188 12.4929 11.6799C11.8861 10.913 11.4784 10.2673 11.1822 9.61201C11.5803 9.24794 11.9492 8.86931 12.3084 8.50523C12.4444 8.36931 12.5803 8.22854 12.7162 8.09262C13.7356 7.07321 13.7356 5.75284 12.7162 4.73344L11.391 3.40821C11.2405 3.25773 11.0852 3.10239 10.9395 2.94705C10.6483 2.64608 10.3424 2.33541 10.0269 2.04415C9.55605 1.57814 8.99295 1.33057 8.40072 1.33057C7.8085 1.33057 7.23569 1.57814 6.75026 2.04415C6.7454 2.049 6.7454 2.049 6.74055 2.05386L5.09009 3.71889C4.46873 4.34024 4.11437 5.09751 4.0367 5.97614C3.9202 7.3936 4.33767 8.71397 4.65805 9.57803C5.44445 11.6994 6.61919 13.6654 8.3716 15.7721C10.4978 18.3109 13.056 20.3158 15.9783 21.7284C17.0948 22.2575 18.5851 22.8837 20.2501 22.9905C20.352 22.9953 20.4588 23.0002 20.5559 23.0002C21.6773 23.0002 22.619 22.5973 23.3568 21.7963C23.3617 21.7866 23.3714 21.7818 23.3763 21.7721C23.6287 21.4662 23.9199 21.1895 24.2258 20.8934C24.4345 20.6944 24.6481 20.4857 24.8568 20.2672C25.3374 19.7672 25.5898 19.1847 25.5898 18.5876C25.5898 17.9857 25.3326 17.408 24.8423 16.9226L22.1773 14.2479ZM23.9151 19.3595C23.9102 19.3595 23.9102 19.3643 23.9151 19.3595C23.7258 19.5633 23.5316 19.7478 23.3229 19.9517C23.0073 20.2527 22.687 20.5682 22.386 20.9226C21.8957 21.4468 21.318 21.6944 20.5608 21.6944C20.488 21.6944 20.4103 21.6944 20.3375 21.6895C18.8957 21.5973 17.5559 21.0342 16.5511 20.5536C13.8036 19.2235 11.391 17.3352 9.38615 14.942C7.73083 12.9469 6.62405 11.1023 5.89105 9.12173C5.4396 7.91301 5.27455 6.97127 5.34736 6.08293C5.39591 5.51498 5.61435 5.04411 6.01726 4.6412L7.67258 2.98589C7.91044 2.76259 8.16286 2.64123 8.41043 2.64123C8.71625 2.64123 8.96382 2.82569 9.11916 2.98103C9.12402 2.98589 9.12887 2.99074 9.13372 2.99559C9.42984 3.27229 9.71139 3.55869 10.0075 3.86452C10.158 4.01985 10.3133 4.17519 10.4687 4.33538L11.7939 5.66061C12.3084 6.17517 12.3084 6.65089 11.7939 7.16544C11.6531 7.30622 11.5172 7.44699 11.3764 7.58291C10.9687 8.00038 10.5803 8.38873 10.158 8.76736C10.1483 8.77707 10.1386 8.78193 10.1337 8.79164C9.71624 9.20911 9.79391 9.61687 9.88129 9.89356C9.88614 9.90813 9.891 9.92269 9.89585 9.93725C10.2405 10.7722 10.7259 11.5586 11.4638 12.4955L11.4686 12.5003C12.8084 14.1508 14.221 15.4372 15.7793 16.4226C15.9783 16.5488 16.1822 16.6508 16.3764 16.7478C16.5511 16.8352 16.7162 16.9177 16.8569 17.0051C16.8763 17.0148 16.8958 17.0294 16.9152 17.0391C17.0802 17.1216 17.2356 17.1605 17.3958 17.1605C17.7987 17.1605 18.0511 16.908 18.1336 16.8255L19.7938 15.1653C19.9588 15.0003 20.221 14.8013 20.5268 14.8013C20.8278 14.8013 21.0753 14.9906 21.2258 15.1556C21.2307 15.1605 21.2307 15.1605 21.2355 15.1653L23.9102 17.8401C24.4102 18.3352 24.4102 18.8449 23.9151 19.3595Z" fill="black"/>
<path d="M16.4297 5.47092C17.7016 5.68451 18.8569 6.28644 19.7792 7.20876C20.7015 8.13108 21.2986 9.2864 21.5171 10.5582C21.5705 10.8786 21.8472 11.1019 22.1627 11.1019C22.2015 11.1019 22.2355 11.0971 22.2743 11.0922C22.6335 11.034 22.8714 10.6942 22.8132 10.3349C22.551 8.79612 21.8229 7.39322 20.7112 6.28159C19.5996 5.16995 18.1967 4.4418 16.6579 4.17967C16.2987 4.12142 15.9637 4.35928 15.9006 4.71365C15.8375 5.06801 16.0705 5.41267 16.4297 5.47092Z" fill="black"/>
<path d="M26.9733 10.1458C26.5413 7.61184 25.3471 5.30604 23.5122 3.47111C21.6772 1.63618 19.3715 0.442024 16.8375 0.00999088C16.4831 -0.0531151 16.1482 0.1896 16.0851 0.543965C16.0268 0.903184 16.2647 1.23813 16.6239 1.30124C18.886 1.68473 20.9491 2.75753 22.5899 4.39343C24.2306 6.03419 25.2986 8.09727 25.6821 10.3594C25.7354 10.6798 26.0121 10.9031 26.3277 10.9031C26.3665 10.9031 26.4005 10.8982 26.4393 10.8933C26.7937 10.84 27.0364 10.5002 26.9733 10.1458Z" fill="black"/>
</g>
</mask>
<g mask="url(#mask0_2_65)">
<rect x="-5.06061" y="-81.5454" width="130.333" height="120.576" fill="white"/>
</g>
<defs>
<clipPath id="clip0_2_65">
<rect width="23" height="23" fill="white" transform="translate(4)"/>
</clipPath>
</defs>
</svg>
